# xmcd
#
# Track frame offsets: 
#        150
#        13750
#        29112
#        44345
#        56775
#        67665
#        81107
#        91132
#        104320
#        118742
#        130827
#        142865
#        158760
#
# Disc length: 2268 seconds
#
# Revision: 2
# Processed by: cddbd v1.5.2PL0 Copyright (c) Steve Scherf et al.
# Submitted via: ExactAudioCopy v1.3
#
DISCID=a708da0d
DTITLE=Karl Shiflett and Big Country Show - In Full Color
DYEAR=2001
DGENRE=Country
TTITLE0=You're Gonna Miss Me When I'm Gone
TTITLE1=Cold, Cold Love
TTITLE2=Misery Loves Company
TTITLE3=It's Fall Again
TTITLE4=Jakebrakes
TTITLE5=Another Day
TTITLE6=The Day I Met An Angel
TTITLE7=Juke Joint Boogie
TTITLE8=Since You've Gone Away
TTITLE9=Down In The Willow Garden
TTITLE10=Now That You Have Me (You Don't Want Me)
TTITLE11=The Old South
TTITLE12=Standing in the Need of Prayer
EXTD=
EXTT0=
EXTT1=
EXTT2=
EXTT3=
EXTT4=
EXTT5=
EXTT6=
EXTT7=
EXTT8=
EXTT9=
EXTT10=
EXTT11=
EXTT12=
PLAYORDER=
